<svg id="Layer_1" data-name="Layer 1" xmlns="http://www.w3.org/2000/svg" width="15" height="12.26" viewBox="0 0 15 12.26"><defs><style>.cls-1{fill:#fff;}</style></defs><title>icon-twitter</title><path class="cls-1" d="M15,1.51A6.15,6.15,0,0,1,13.23,2,3,3,0,0,0,14.58.3a6.15,6.15,0,0,1-2,.76A3,3,0,0,0,7.39,3.88,8.73,8.73,0,0,1,1,.63,3,3,0,0,0,2,4.74,3,3,0,0,1,.6,4.36v0A3,3,0,0,0,3,7.41a3.1,3.1,0,0,1-.76.11,3,3,0,0,1-.58-.05A3,3,0,0,0,4.57,9.6,6.17,6.17,0,0,1,.76,10.92a6.35,6.35,0,0,1-.76,0,8.72,8.72,0,0,0,4.72,1.39,8.69,8.69,0,0,0,8.76-8.62s0-.09,0-.13v-.4A6.27,6.27,0,0,0,15,1.51Z"/></svg>