<svg id="Layer_1" data-name="Layer 1" xmlns="http://www.w3.org/2000/svg" width="14.98" height="15" viewBox="0 0 14.98 15"><defs><style>.cls-1{fill:#fff;}</style></defs><title>icon-instagram</title><path class="cls-1" d="M7.52,1.35c2,0,2.25,0,3,0A4.18,4.18,0,0,1,12,1.67a2.33,2.33,0,0,1,.84.56,2.33,2.33,0,0,1,.56.84,4.18,4.18,0,0,1,.26,1.39c0,.79,0,1,0,3s0,2.25,0,3A4.18,4.18,0,0,1,13.36,12,2.51,2.51,0,0,1,12,13.36a4.18,4.18,0,0,1-1.39.26c-.79,0-1,0-3,0s-2.25,0-3,0a4.18,4.18,0,0,1-1.39-.26,2.33,2.33,0,0,1-.84-.56A2.33,2.33,0,0,1,1.69,12a4.18,4.18,0,0,1-.26-1.39c0-.79,0-1,0-3s0-2.25,0-3a4.18,4.18,0,0,1,.24-1.41,2.33,2.33,0,0,1,.56-.84,2.33,2.33,0,0,1,.84-.56,4.18,4.18,0,0,1,1.39-.26c.79,0,1,0,3,0M7.52,0c-2,0-2.3,0-3.1,0A5.52,5.52,0,0,0,2.59.39a3.68,3.68,0,0,0-1.33.84A3.68,3.68,0,0,0,.43,2.56,5.52,5.52,0,0,0,0,4.42c0,.8,0,1.06,0,3.1s0,2.3,0,3.1a5.52,5.52,0,0,0,.35,1.83,3.68,3.68,0,0,0,.84,1.33,3.68,3.68,0,0,0,1.33.84A5.52,5.52,0,0,0,4.38,15c.84,0,1.06,0,3.1,0s2.3,0,3.1,0a5.52,5.52,0,0,0,1.82-.35,3.84,3.84,0,0,0,2.2-2.2,5.52,5.52,0,0,0,.35-1.82c0-.84,0-1.06,0-3.1s0-2.3,0-3.1a5.52,5.52,0,0,0-.35-1.82,3.68,3.68,0,0,0-.84-1.33A3.68,3.68,0,0,0,12.43.41,5.52,5.52,0,0,0,10.62,0C9.81,0,9.55,0,7.52,0Z"/><path class="cls-1" d="M7.52,3.66a3.86,3.86,0,1,0,3.86,3.86A3.86,3.86,0,0,0,7.52,3.66Zm0,6.36A2.51,2.51,0,1,1,10,7.52,2.51,2.51,0,0,1,7.52,10Z"/><circle class="cls-1" cx="11.53" cy="3.51" r="0.9"/></svg>